<?xml version="1.0" standalone="no"?>
<!DOCTYPE svg PUBLIC "-//W3C//DTD SVG 20010904//EN"
 "http://www.w3.org/TR/2001/REC-SVG-20010904/DTD/svg10.dtd">
<svg version="1.0" xmlns="http://www.w3.org/2000/svg"
 width="260.000000pt" height="260.000000pt" viewBox="0 0 260.000000 260.000000"
 preserveAspectRatio="xMidYMid meet">
<metadata>
Created by potrace 1.11, written by Peter Selinger 2001-2013
</metadata>
<g transform="translate(0.000000,260.000000) scale(0.100000,-0.100000)"
fill="#000000" stroke="none">
<path d="M0 1300 l0 -1300 1300 0 1300 0 0 1300 0 1300 -1300 0 -1300 0 0
-1300z m1640 935 l0 -135 28 0 c36 0 60 -16 46 -30 -7 -7 -83 -9 -225 -8 -182
3 -214 5 -214 18 0 10 12 16 38 18 l37 3 0 128 c0 70 3 131 7 134 3 4 69 7
145 7 l138 0 0 -135z m-18 -209 c153 -30 269 -93 375 -204 60 -62 62 -63 53
-31 -16 53 -12 77 14 94 23 15 37 14 197 -15 187 -34 204 -40 214 -70 10 -30
-6 -50 -132 -169 -117 -111 -154 -134 -176 -112 -23 23 -37 12 -37 -28 0 -21
-9 -68 -20 -103 -72 -234 -388 -493 -810 -664 l-105 -43 -5 -218 c-3 -120 -9
-224 -13 -230 -13 -21 -54 -15 -71 9 -13 18 -16 56 -16 210 0 183 -1 188 -21
188 -11 0 -29 -5 -40 -10 -18 -10 -19 -23 -19 -198 0 -200 -7 -232 -50 -232
-42 0 -50 34 -50 216 0 94 -2 173 -5 176 -3 2 -47 -3 -98 -13 -163 -32 -360
-44 -495 -31 -140 14 -168 22 -184 57 -37 82 157 569 314 787 91 126 200 248
291 325 287 246 618 361 889 309z"/>
<path d="M1377 1929 c-392 -57 -788 -399 -1013 -873 -42 -90 -134 -350 -134
-380 0 -19 17 -23 130 -31 147 -10 494 30 559 64 11 6 30 11 43 11 45 0 325
102 453 164 271 132 487 309 570 466 38 71 40 79 40 165 0 81 -3 95 -29 143
-113 203 -355 310 -619 271z m222 -143 c59 -31 67 -102 17 -152 -38 -38 -70
-43 -116 -19 -37 19 -50 43 -50 90 0 74 79 117 149 81z"/>
<path d="M2170 1767 c0 -19 31 -106 39 -111 8 -6 111 81 111 93 0 7 -109 31
-139 31 -6 0 -11 -6 -11 -13z"/>
</g>
</svg>
