<?xml version="1.0" standalone="no"?><!-- Generator: Adobe Fireworks CS5, Export SVG Extension by Aaron Beall (http://fireworks.abeall.com) . Version: 0.6.1  --><!DOCTYPE svg PUBLIC "-//W3C//DTD SVG 1.1//EN" "http://www.w3.org/Graphics/SVG/1.1/DTD/svg11.dtd"><svg id="Untitled-Page%201" viewBox="0 0 200 150" style="background-color:#ffffff00" version="1.1"	xmlns="http://www.w3.org/2000/svg" xmlns:xlink="http://www.w3.org/1999/xlink" xml:space="preserve"	x="0px" y="0px" width="200px" height="150px">	<g>		<path id="Ellipse" d="M 130.944 51.5331 C 106.5971 18.867 45.2246 46.3651 31 111.3945 C 75.3773 120.7585 153.676 82.0323 130.944 51.5331 Z" stroke="#ffffff" stroke-width="2" fill="none"/>		<path d="M 74.086 108.1825 L 74.086 132 " stroke="#ffffff" stroke-width="2" fill="none"/>		<path d="M 83.9406 106.1798 L 83.9406 131.4495 " stroke="#ffffff" stroke-width="2" fill="none"/>		<path d="M 154 48.5821 L 140.6902 61.158 L 134.9033 45.1524 L 154 48.5821 Z" stroke="#ffffff" stroke-width="2" fill="none"/>		<path id="Ellipse2" d="M 108.8623 53.1552 C 108.8623 51.5767 107.5669 50.2971 105.9689 50.2971 C 104.3709 50.2971 103.0755 51.5767 103.0755 53.1552 C 103.0755 54.7338 104.3709 56.0134 105.9689 56.0134 C 107.5669 56.0134 108.8623 54.7338 108.8623 53.1552 Z" stroke="#ffffff" stroke-width="2" fill="#ffffff"/>		<g>			<path d="M 114.6491 32.8624 L 90.923 32.8624 " stroke="#ffffff" stroke-width="2" fill="none"/>			<rect x="96.1313" y="18" width="13.8885" height="14.0043" stroke="#ffffff" stroke-width="1" fill="#ffffff"/>		</g>	</g></svg>