<?xml version="1.0" standalone="no"?><!-- Generator: Adobe Fireworks CS5, Export SVG Extension by Aaron Beall (http://fireworks.abeall.com) . Version: 0.6.1  --><!DOCTYPE svg PUBLIC "-//W3C//DTD SVG 1.1//EN" "http://www.w3.org/Graphics/SVG/1.1/DTD/svg11.dtd"><svg id="birds-logo-Page%201" viewBox="0 0 346 84" style="background-color:#ffffff00" version="1.1"	xmlns="http://www.w3.org/2000/svg" xmlns:xlink="http://www.w3.org/1999/xlink" xml:space="preserve"	x="0px" y="0px" width="346px" height="84px">	<g id="Layer%201">		<g>			<path id="Ellipse" d="M 116.3163 23.4604 C 133.4836 -0.6093 176.7582 19.6525 186.7883 67.5689 C 155.4971 74.4686 100.2877 45.9335 116.3163 23.4604 Z" stroke="#ffffff" stroke-width="1" fill="none"/>			<path id="Ellipse2" d="M 70.4719 24.7086 C 53.3046 0.6388 10.03 20.9006 0 68.817 C 31.2911 75.7168 86.5006 47.1817 70.4719 24.7086 Z" stroke="#ffffff" stroke-width="1" fill="none"/>			<path id="Ellipse3" d="M 198.6446 23.3781 C 215.812 -0.6917 259.0865 19.5701 269.1165 67.4865 C 237.8255 74.3863 182.6159 45.8512 198.6446 23.3781 Z" stroke="#ffffff" stroke-width="1" fill="none"/>			<path id="Ellipse4" d="M 275.528 23.1426 C 292.6954 -0.9271 335.9701 19.3347 346 67.2511 C 314.7089 74.1509 259.4995 45.6158 275.528 23.1426 Z" stroke="#ffffff" stroke-width="1" fill="none"/>			<path d="M 157.1919 66.0266 L 157.1919 83.5763 " stroke="#ffffff" stroke-width="1" fill="none"/>			<path d="M 30.3805 66.4503 L 30.3805 84 " stroke="#ffffff" stroke-width="1" fill="none"/>			<path d="M 239.6419 65.9847 L 239.6419 83.5344 " stroke="#ffffff" stroke-width="1" fill="none"/>			<path d="M 316.6432 65.0601 L 316.6432 82.6098 " stroke="#ffffff" stroke-width="1" fill="none"/>			<path d="M 150.2432 63.1705 L 150.2432 81.7903 " stroke="#ffffff" stroke-width="1" fill="none"/>			<path d="M 37.3292 64.9746 L 37.3292 83.5944 " stroke="#ffffff" stroke-width="1" fill="none"/>			<path d="M 232.6932 63.1286 L 232.6932 81.7484 " stroke="#ffffff" stroke-width="1" fill="none"/>			<path d="M 309.6945 64.204 L 309.6945 82.8238 " stroke="#ffffff" stroke-width="1" fill="none"/>			<path d="M 100.0592 23.3035 L 109.4441 32.5699 L 113.5246 20.7763 L 100.0592 23.3035 Z" stroke="#ffffff" stroke-width="1" fill="#ff0000"/>			<path d="M 86.7291 22.5342 L 77.3441 31.8007 L 73.2637 20.007 L 86.7291 22.5342 Z" stroke="#ffffff" stroke-width="1" fill="none"/>			<path d="M 182.3875 23.2211 L 191.7725 32.4875 L 195.8528 20.6939 L 182.3875 23.2211 Z" stroke="#ffffff" stroke-width="1" fill="#ff0000"/>			<path d="M 259.2709 22.9857 L 268.6559 32.2521 L 272.7363 20.4585 L 259.2709 22.9857 Z" stroke="#ffffff" stroke-width="1" fill="#ff0000"/>			<path id="Ellipse5" d="M 131.8864 26.6731 C 131.8864 25.51 132.7999 24.5671 133.9267 24.5671 C 135.0535 24.5671 135.9668 25.51 135.9668 26.6731 C 135.9668 27.8362 135.0535 28.7791 133.9267 28.7791 C 132.7999 28.7791 131.8864 27.8362 131.8864 26.6731 Z" stroke="#ffffff" stroke-width="1" fill="#ffffff"/>			<path id="Ellipse6" d="M 54.9018 25.9038 C 54.9018 24.7407 53.9884 23.7979 52.8616 23.7979 C 51.7348 23.7979 50.8214 24.7407 50.8214 25.9038 C 50.8214 27.067 51.7348 28.0099 52.8616 28.0099 C 53.9884 28.0099 54.9018 27.067 54.9018 25.9038 Z" stroke="#ffffff" stroke-width="1" fill="#ffffff"/>			<path id="Ellipse7" d="M 214.2147 26.5907 C 214.2147 25.4276 215.1281 24.4847 216.2549 24.4847 C 217.3817 24.4847 218.2951 25.4276 218.2951 26.5907 C 218.2951 27.7538 217.3817 28.6967 216.2549 28.6967 C 215.1281 28.6967 214.2147 27.7538 214.2147 26.5907 Z" stroke="#ffffff" stroke-width="1" fill="#ffffff"/>			<path id="Ellipse8" d="M 291.0982 26.3553 C 291.0982 25.1922 292.0116 24.2493 293.1384 24.2493 C 294.2652 24.2493 295.1786 25.1922 295.1786 26.3553 C 295.1786 27.5184 294.2652 28.4613 293.1384 28.4613 C 292.0116 28.4613 291.0982 27.5184 291.0982 26.3553 Z" stroke="#ffffff" stroke-width="1" fill="#ffffff"/>			<g>				<path d="M 58.9822 10.9512 L 42.2525 10.9512 " stroke="#ffffff" stroke-width="1" fill="none"/>				<rect x="45.925" y="0" width="9.793" height="10.3192" stroke="#ffffff" stroke-width="1" fill="#ffffff"/>			</g>		</g>	</g></svg>