<?xml version="1.0" standalone="no"?>
<!-- Generator: Adobe Fireworks 10, Export SVG Extension by Aaron Beall (http://fireworks.abeall.com) . Version: 0.6.1  -->
<!DOCTYPE svg PUBLIC "-//W3C//DTD SVG 1.1//EN" "http://www.w3.org/Graphics/SVG/1.1/DTD/svg11.dtd">
<svg id="Untitled-Page%201" viewBox="0 0 250 70" style="background-color:#ffffff00" version="1.1"
	xmlns="http://www.w3.org/2000/svg" xmlns:xlink="http://www.w3.org/1999/xlink" xml:space="preserve"
	x="0px" y="0px" width="250px" height="70px"
>
	<g>
		<g>
			<path d="M 52.0776 69.281 L 69.95 69.281 L 69.9492 46.8281 L 52.0776 69.281 Z" fill="#ffffff"/>
			<path d="M 35.8273 7.1992 L 15.4212 7.1992 L 38.3488 39.9784 L 15.8444 69.281 L 35.7811 69.281 L 59.0375 40.0559 L 35.8273 7.1992 Z" fill="#ffffff"/>
			<path d="M 69.95 7.1992 L 51.4625 7.1992 L 69.9492 33.3617 L 69.95 7.1992 Z" fill="#ffffff"/>
			<path d="M 15.4212 69.281 L 15.4212 7.1992 L 0 7.1992 L 0 69.281 L 15.4212 69.281 Z" fill="#ffffff"/>
		</g>
		<g>
			<path d="M 83.9648 34.0386 L 88.6325 34.0386 L 88.6325 25.2033 L 92.2374 21.4803 L 100.51 34.0386 L 106.0216 34.0386 L 95.2381 18.1807 L 105.3131 7.6413 L 99.864 7.6413 L 88.6325 19.6134 L 88.6325 7.6413 L 83.9648 7.6413 L 83.9648 34.0386 L 83.9648 34.0386 Z" fill="#ffffff"/>
			<path d="M 122.6293 11.2992 C 123.567 11.8853 124.3276 12.6776 124.911 13.6545 C 125.4945 14.6422 125.9321 15.7602 126.2134 17.0084 C 126.4947 18.2675 126.6405 19.5374 126.6405 20.8399 C 126.6405 22.1424 126.4947 23.4232 126.2134 24.6714 C 125.9321 25.9305 125.4945 27.0485 124.911 28.0254 C 124.3276 29.0131 123.567 29.7946 122.6293 30.3807 C 121.6916 30.9668 120.5872 31.2599 119.3057 31.2599 C 118.0137 31.2599 116.9093 30.9668 115.9716 30.3807 C 115.0339 29.7946 114.2733 29.0131 113.6899 28.0254 C 113.1064 27.0485 112.6688 25.9305 112.3875 24.6714 C 112.1062 23.4232 111.9708 22.1424 111.9708 20.8399 C 111.9708 19.5374 112.1062 18.2675 112.3875 17.0084 C 112.6688 15.7602 113.1064 14.6422 113.6899 13.6545 C 114.2733 12.6776 115.0339 11.8853 115.9716 11.2992 C 116.9093 10.713 118.0137 10.42 119.3057 10.42 C 120.5872 10.42 121.6916 10.713 122.6293 11.2992 L 122.6293 11.2992 ZM 114.2733 8.0646 C 112.7834 8.8027 111.5228 9.8121 110.4913 11.0712 C 109.4598 12.3303 108.668 13.8064 108.1262 15.4889 C 107.574 17.1821 107.3031 18.9622 107.3031 20.8399 C 107.3031 22.7503 107.574 24.552 108.1262 26.2344 C 108.668 27.9168 109.4598 29.393 110.4913 30.6521 C 111.5228 31.9112 112.7834 32.9097 114.2733 33.637 C 115.7528 34.3642 117.4303 34.7332 119.3057 34.7332 C 121.1706 34.7332 122.8481 34.3642 124.338 33.637 C 125.8175 32.9097 127.0782 31.9112 128.1096 30.6521 C 129.1411 29.393 129.9329 27.9168 130.4851 26.2344 C 131.0269 24.552 131.3082 22.7503 131.3082 20.8399 C 131.3082 18.9622 131.0269 17.1821 130.4851 15.4889 C 129.9329 13.8064 129.1411 12.3303 128.1096 11.0712 C 127.0782 9.8121 125.8175 8.8027 124.338 8.0646 C 122.8481 7.3265 121.1706 6.9466 119.3057 6.9466 C 117.4303 6.9466 115.7528 7.3265 114.2733 8.0646 L 114.2733 8.0646 Z" fill="#ffffff"/>
			<path d="M 141.7375 34.0386 L 146.6656 34.0386 L 155.3133 7.6413 L 150.6456 7.6413 L 144.2797 28.4487 L 144.2068 28.4487 L 137.9763 7.6413 L 133.3086 7.6413 L 141.7375 34.0386 L 141.7375 34.0386 Z" fill="#ffffff"/>
			<path d="M 155.3133 34.0386 L 159.981 34.0386 L 162.3252 27.0919 L 172.3065 27.0919 L 174.6507 34.0386 L 179.3184 34.0386 L 169.6393 7.6413 L 164.9612 7.6413 L 155.3133 34.0386 L 155.3133 34.0386 ZM 167.0137 12.3086 L 167.1179 12.3086 L 170.8999 23.6186 L 163.1899 23.6186 L 167.0137 12.3086 L 167.0137 12.3086 Z" fill="#ffffff"/>
			<path d="M 203.3235 15.6517 C 203.1776 14.2298 202.8129 12.9707 202.2295 11.8635 C 201.6461 10.7673 200.875 9.8664 199.9269 9.15 C 198.9788 8.4337 197.8848 7.8909 196.6449 7.511 C 195.3947 7.142 194.0716 6.9466 192.6754 6.9466 C 190.8 6.9466 189.1121 7.3265 187.6222 8.0646 C 186.1323 8.8027 184.8716 9.8121 183.8506 11.0712 C 182.8191 12.3303 182.0273 13.8064 181.4751 15.4889 C 180.9229 17.1821 180.652 18.9622 180.652 20.8399 C 180.652 22.7503 180.9229 24.552 181.4751 26.2344 C 182.0169 27.9168 182.8087 29.393 183.8402 30.6521 C 184.8716 31.9112 186.1323 32.9097 187.6222 33.637 C 189.1017 34.3642 190.7791 34.7332 192.6545 34.7332 C 194.1757 34.7332 195.5614 34.4728 196.8325 33.9735 C 198.0932 33.4742 199.1872 32.7578 200.1249 31.8352 C 201.0626 30.9126 201.8024 29.8163 202.3545 28.5355 C 202.9067 27.2656 203.2297 25.8546 203.3235 24.3133 L 199.3226 24.3133 C 199.2288 25.2793 199.0309 26.1802 198.7287 27.0268 C 198.4162 27.8734 197.9995 28.6115 197.4576 29.241 C 196.9159 29.8706 196.2803 30.3699 195.5302 30.728 C 194.78 31.0862 193.9152 31.2599 192.9359 31.2599 C 191.6022 31.2599 190.4457 30.9668 189.4768 30.3807 C 188.4974 29.7946 187.7056 29.0131 187.1013 28.0254 C 186.497 27.0485 186.049 25.9305 185.7573 24.6714 C 185.4655 23.4232 185.3197 22.1424 185.3197 20.8399 C 185.3197 19.5374 185.4551 18.2675 185.7364 17.0084 C 186.0177 15.7602 186.4553 14.6422 187.0388 13.6545 C 187.6222 12.6776 188.3828 11.8853 189.3205 11.2992 C 190.2478 10.713 191.3522 10.42 192.6441 10.42 C 193.5193 10.42 194.2904 10.5502 194.9571 10.8107 C 195.6239 11.0712 196.197 11.4402 196.6971 11.907 C 197.1868 12.3737 197.5931 12.9273 197.9057 13.5568 C 198.2183 14.1972 198.4683 14.8919 198.6559 15.6517 L 203.3235 15.6517 L 203.3235 15.6517 ZM 198.6559 0 L 195.3218 0 L 192.9671 3.4733 L 190.6541 0 L 187.3201 0 L 191.0396 5.5573 L 194.905 5.5573 L 198.6559 0 L 198.6559 0 Z" fill="#ffffff"/>
			<path d="M 207.9911 34.0386 L 226.6513 34.0386 L 226.6513 30.5652 L 212.6588 30.5652 L 212.6588 22.2292 L 225.3803 22.2292 L 225.3803 18.7559 L 212.6588 18.7559 L 212.6588 11.1146 L 226.4013 11.1146 L 226.4013 7.6413 L 207.9911 7.6413 L 207.9911 34.0386 L 207.9911 34.0386 Z" fill="#ffffff"/>
			<path d="M 236.4242 34.0386 L 241.3524 34.0386 L 250 7.6413 L 245.3324 7.6413 L 238.9664 28.4487 L 238.8935 28.4487 L 232.663 7.6413 L 227.9953 7.6413 L 236.4242 34.0386 L 236.4242 34.0386 Z" fill="#ffffff"/>
			<path d="M 83.298 69.3053 L 91.5289 69.3053 C 93.5606 69.3053 95.311 68.9688 96.7905 68.2959 C 98.2699 67.6229 99.489 66.6895 100.4579 65.5064 C 101.4269 64.3233 102.1458 62.9231 102.6042 61.3058 C 103.0626 59.6886 103.3023 57.941 103.3023 56.0741 C 103.3023 54.4026 103.1147 52.7745 102.7501 51.1898 C 102.375 49.6159 101.7499 48.2157 100.8538 46.9784 C 99.9578 45.741 98.7492 44.7533 97.2489 44.0152 C 95.7486 43.2771 93.8628 42.9081 91.6019 42.9081 L 83.298 42.9081 L 83.298 69.3053 L 83.298 69.3053 ZM 84.6317 67.916 L 84.6317 44.2974 L 91.2997 44.2974 C 91.9249 44.2974 92.6333 44.3408 93.4252 44.4276 C 94.217 44.5145 94.9984 44.699 95.7903 44.9704 C 96.5821 45.2417 97.3427 45.6325 98.0824 46.1318 C 98.8222 46.6419 99.4785 47.3366 100.0516 48.2049 C 100.6246 49.0841 101.083 50.1695 101.4373 51.4503 C 101.7915 52.7311 101.9687 54.2723 101.9687 56.0741 C 101.9687 58.3752 101.6561 60.2747 101.0414 61.7943 C 100.4163 63.3138 99.614 64.5187 98.6138 65.4196 C 97.6136 66.3204 96.5092 66.9608 95.2797 67.3407 C 94.0503 67.7315 92.8313 67.916 91.6227 67.916 L 84.6317 67.916 L 84.6317 67.916 Z" fill="#ffffff"/>
			<path d="M 107.9699 69.3053 L 124.8902 69.3053 L 124.8902 67.916 L 109.3035 67.916 L 109.3035 56.1067 L 123.7962 56.1067 L 123.7962 54.7174 L 109.3035 54.7174 L 109.3035 44.2974 L 124.7131 44.2974 L 124.7131 42.9081 L 107.9699 42.9081 L 107.9699 69.3053 L 107.9699 69.3053 Z" fill="#ffffff"/>
			<path d="M 145.3112 50.5494 C 145.2382 49.0732 144.9465 47.8033 144.436 46.7396 C 143.9151 45.6867 143.2378 44.8292 142.3835 44.1563 C 141.5291 43.4942 140.5289 43.0057 139.3932 42.691 C 138.2576 42.3762 137.0386 42.2134 135.7258 42.2134 C 134.7464 42.2134 133.7462 42.3436 132.746 42.6041 C 131.7354 42.8647 130.8289 43.2771 130.0267 43.8307 C 129.214 44.3951 128.5576 45.1223 128.0575 46.0232 C 127.5574 46.9349 127.3074 48.0203 127.3074 49.2794 C 127.3074 50.5494 127.5574 51.5805 128.0575 52.3837 C 128.5576 53.1869 129.2036 53.8491 130.0163 54.3592 C 130.8185 54.8693 131.7458 55.2709 132.7877 55.564 C 133.8296 55.8679 134.8923 56.1284 135.955 56.3455 C 137.0386 56.5626 138.1013 56.8014 139.1432 57.0618 C 140.1747 57.3224 141.1019 57.6697 141.9146 58.1038 C 142.7273 58.538 143.3941 59.1133 143.8942 59.8188 C 144.3943 60.5352 144.6444 61.4469 144.6444 62.5541 C 144.6444 63.7263 144.3943 64.6923 143.9046 65.4521 C 143.4149 66.2227 142.8002 66.8414 142.0709 67.3082 C 141.3416 67.7858 140.5393 68.1222 139.6642 68.3176 C 138.789 68.513 137.9763 68.6107 137.2053 68.6107 C 135.9342 68.6107 134.7152 68.4696 133.5691 68.1656 C 132.423 67.8726 131.4228 67.3841 130.5789 66.7112 C 129.7245 66.0383 129.0577 65.1808 128.5785 64.1388 C 128.0992 63.0968 127.8908 61.8051 127.9742 60.2747 L 126.6405 60.2747 C 126.6197 62.0439 126.8802 63.5418 127.4324 64.7683 C 127.9742 66.0057 128.7243 67.0042 129.6829 67.7858 C 130.6414 68.5673 131.7562 69.1317 133.0482 69.479 C 134.3297 69.8263 135.705 70 137.1845 70 C 138.143 70 139.1328 69.8697 140.1747 69.6093 C 141.2166 69.3488 142.1647 68.9254 143.019 68.3285 C 143.8734 67.7423 144.5714 66.9717 145.1341 66.0274 C 145.6967 65.0831 145.978 63.9217 145.978 62.5323 C 145.978 61.2407 145.7279 60.1661 145.2278 59.3087 C 144.7277 58.462 144.0609 57.7674 143.2482 57.2355 C 142.4356 56.7037 141.5083 56.2804 140.4768 55.9656 C 139.435 55.6617 138.3722 55.3903 137.2886 55.1624 C 136.2259 54.9453 135.1632 54.7065 134.1213 54.4569 C 133.0794 54.2181 132.1521 53.8925 131.3499 53.48 C 130.5372 53.0675 129.8913 52.5357 129.3911 51.8627 C 128.891 51.1898 128.641 50.3215 128.641 49.2577 C 128.641 48.1723 128.8702 47.2606 129.3286 46.5225 C 129.787 45.7953 130.3705 45.2091 131.079 44.775 C 131.7875 44.3408 132.5481 44.0369 133.3816 43.8632 C 134.2151 43.6896 134.9861 43.6027 135.7154 43.6027 C 136.8927 43.6027 137.9763 43.7547 138.9765 44.0369 C 139.9767 44.3299 140.8311 44.7641 141.5604 45.3503 C 142.2793 45.9364 142.8523 46.6527 143.2691 47.5102 C 143.6858 48.3786 143.9255 49.388 143.9776 50.5494 L 145.3112 50.5494 L 145.3112 50.5494 Z" fill="#ffffff"/>
			<path d="M 150.6456 69.3053 L 151.9793 69.3053 L 151.9793 42.9081 L 150.6456 42.9081 L 150.6456 69.3053 L 150.6456 69.3053 Z" fill="#ffffff"/>
			<path d="M 156.0843 61.6206 C 156.6052 63.2921 157.3658 64.7466 158.3765 65.984 C 159.3767 67.2213 160.6165 68.2091 162.0856 68.9254 C 163.5546 69.6309 165.2425 70 167.1491 70 C 168.2431 70 169.3058 69.8481 170.3269 69.555 C 171.3479 69.2619 172.2752 68.8495 173.1087 68.3176 C 173.9422 67.7858 174.6612 67.1237 175.2759 66.3422 C 175.8802 65.5606 176.3386 64.6923 176.6512 63.7263 L 176.6512 63.748 L 176.6512 69.3053 L 177.9848 69.3053 L 177.9848 56.1067 L 167.3575 56.1067 L 167.3575 57.496 L 176.6512 57.496 C 176.7137 59.1784 176.5365 60.698 176.1198 62.0656 C 175.6926 63.4333 175.057 64.5946 174.2235 65.5606 C 173.3796 66.5267 172.3586 67.2756 171.15 67.8075 C 169.9414 68.3502 168.5869 68.6107 167.0762 68.6107 C 165.3258 68.6107 163.7943 68.285 162.4919 67.6229 C 161.1896 66.9717 160.106 66.0817 159.2516 64.9637 C 158.3869 63.8565 157.7409 62.5432 157.3033 61.0453 C 156.8657 59.5474 156.6469 57.9519 156.6469 56.2587 C 156.6469 54.598 156.8657 53.0024 157.3137 51.472 C 157.7617 49.9524 158.4181 48.6065 159.2933 47.4342 C 160.1685 46.2729 161.2521 45.3394 162.544 44.6447 C 163.8359 43.9501 165.3363 43.6027 167.0345 43.6027 C 169.3683 43.6027 171.2959 44.2865 172.8274 45.6325 C 174.359 46.9784 175.4217 48.8561 176.0156 51.244 L 177.4951 51.244 C 177.2867 49.833 176.8595 48.563 176.224 47.456 C 175.578 46.3488 174.7966 45.3937 173.8693 44.6122 C 172.9316 43.8307 171.8793 43.2337 170.702 42.8212 C 169.5246 42.4196 168.2952 42.2134 167.0033 42.2134 C 165.0862 42.2134 163.3983 42.5933 161.9293 43.3531 C 160.4498 44.1129 159.21 45.1332 158.1993 46.4139 C 157.1783 47.7056 156.4489 49.2035 155.9905 50.8967 C 155.5321 52.5899 155.3133 54.3809 155.3133 56.2587 C 155.3133 58.169 155.5634 59.9491 156.0843 61.6206 L 156.0843 61.6206 Z" fill="#ffffff"/>
			<path d="M 182.6524 69.3053 L 183.986 69.3053 L 183.986 44.9052 L 184.059 44.992 L 200.1457 69.3053 L 201.9899 69.3053 L 201.9899 42.9081 L 200.6563 42.9081 L 200.6563 67.1237 L 200.5834 67.2213 L 184.6007 42.9081 L 182.6524 42.9081 L 182.6524 69.3053 L 182.6524 69.3053 Z" fill="#ffffff"/>
		</g>
	</g>
</svg>